<?xml version="1.0" encoding="utf-8"?>
<!-- Generator: Adobe Illustrator 23.1.0, SVG Export Plug-In . SVG Version: 6.00 Build 0)  -->
<svg version="1.1" id="Capa_1" xmlns="http://www.w3.org/2000/svg" xmlns:xlink="http://www.w3.org/1999/xlink" x="0px" y="0px"
	 viewBox="0 0 535 535" style="enable-background:new 0 0 535 535;" xml:space="preserve">
<style type="text/css">
	.st0{clip-path:url(#SVGID_2_);fill:#429EEA;stroke:#000000;stroke-width:3;stroke-miterlimit:10;}
	.st1{clip-path:url(#SVGID_2_);fill:#9F49EA;stroke:#000000;stroke-width:3;stroke-miterlimit:10;}
	.st2{clip-path:url(#SVGID_2_);fill:#F44545;stroke:#000000;stroke-width:3;stroke-miterlimit:10;}
	.st3{clip-path:url(#SVGID_2_);fill:#4BE272;stroke:#000000;stroke-width:3;stroke-miterlimit:10;}
	.st4{clip-path:url(#SVGID_2_);fill:#1B1A1A;stroke:#000000;stroke-width:3;stroke-miterlimit:10;}
	.st5{clip-path:url(#SVGID_2_);fill:#EACC4E;stroke:#000000;stroke-width:3;stroke-miterlimit:10;}
	.st6{clip-path:url(#SVGID_2_);fill:#ACACAC;stroke:#000000;stroke-width:3;stroke-miterlimit:10;}
	.st7{fill:none;stroke:#000000;stroke-width:3;stroke-miterlimit:10;}
	.st8{fill:#FFFFFF;stroke:#000000;stroke-width:2;stroke-miterlimit:10;}
	.st9{font-family:'Cubano-Regular';}
	.st10{font-size:40px;glyph-orientation-vertical:0;writing-mode:tb;}
	.st11{letter-spacing:10;}
</style>
<g>
	<defs>
		<circle id="SVGID_1_" cx="267.5" cy="267.5" r="264.3"/>
	</defs>
	<clipPath id="SVGID_2_">
		<use xlink:href="#SVGID_1_"  style="overflow:visible;"/>
	</clipPath>
	<polygon class="st0" points="0.4,292.5 167.6,277.3 173.4,303 15.9,361.2 	"/>
	<polygon class="st1" points="3.2,222.6 168.7,251.1 167.7,277.4 0.4,292.9 	"/>
	<polygon class="st2" points="24.1,155.7 176.6,226.1 168.7,251.3 3.2,223 	"/>
	<polygon class="st3" points="61.5,96.6 190.6,204 176.5,226.3 23.9,156.1 	"/>
	<polygon class="st4" points="113,49.1 209.9,186.3 190.5,204.2 61.3,96.9 	"/>
	<polygon class="st5" points="175,16.6 233.1,174.2 209.7,186.4 112.7,49.3 	"/>
	<polygon class="st0" points="243.4,1.3 258.6,168.5 232.9,174.3 174.7,16.7 	"/>
	<polygon class="st1" points="313.3,4.1 284.8,169.6 258.4,168.5 243,1.3 	"/>
	<polygon class="st2" points="380.2,25 309.7,177.4 284.6,169.6 312.9,4 	"/>
	<polygon class="st3" points="439.3,62.4 331.8,191.5 309.6,177.4 379.8,24.8 	"/>
	<polygon class="st6" points="486.8,113.9 349.5,210.7 331.7,191.4 439,62.2 	"/>
	<polygon class="st5" points="519.3,175.9 361.7,233.9 349.4,210.6 486.5,113.6 	"/>
	<polygon class="st0" points="534.6,244.2 367.4,259.5 361.6,233.8 519.1,175.5 	"/>
	<polygon class="st1" points="531.8,314.2 366.3,285.6 367.3,259.3 534.6,243.8 	"/>
	<polygon class="st2" points="510.9,381 358.4,310.6 366.3,285.5 531.8,313.8 	"/>
	<polygon class="st3" points="473.5,440.2 344.4,332.7 358.5,310.4 511.1,380.7 	"/>
	<polygon class="st4" points="422,487.6 325.1,350.4 344.5,332.6 473.7,439.9 	"/>
	<polygon class="st5" points="360,520.1 301.9,362.5 325.3,350.3 422.3,487.4 	"/>
	<polygon class="st0" points="291.6,535.5 276.4,368.3 302.1,362.5 360.3,520 	"/>
	<polygon class="st1" points="221.7,532.6 250.2,367.2 276.6,368.2 292,535.5 	"/>
	<polygon class="st2" points="154.8,511.8 225.3,359.3 250.4,367.1 222.1,532.7 	"/>
	<polygon class="st3" points="95.7,474.3 203.2,345.3 225.4,359.4 155.2,511.9 	"/>
	<polygon class="st5" points="15.7,360.8 173.3,302.8 185.6,326.1 48.5,423.2 	"/>
	<polygon class="st6" points="48.2,422.8 185.5,326 203.3,345.4 96,474.6 	"/>
</g>
<circle class="st7" cx="267.5" cy="267.5" r="264.3"/>
<g>
	<path d="M210.4,223.8c0.5-0.6,0.9-1.2,1.4-1.8c1.6-1.9,0.2-4.9-2.3-4.9h0c-0.9,0-1.8,0.4-2.3,1.1c-0.5,0.6-1,1.3-1.5,1.9
		c-1.5,2-0.1,4.8,2.4,4.8h0C208.9,224.9,209.8,224.5,210.4,223.8z"/>
	<path d="M271,189.6c-13.1-0.6-25.6,2.1-36.6,7.3c-2.9,1.4-1.9,5.7,1.3,5.7h0c0.4,0,0.9-0.1,1.3-0.3c10.5-5,22.4-7.4,34.9-6.7
		c36,2.1,65.2,31.1,67.5,67.1c2.9,44.2-34.3,80.6-78.7,76.5c-34.4-3.2-61.9-31-64.9-65.4c-1-12,0.9-23.5,5.2-33.7
		c0.8-2-0.7-4.1-2.8-4.1h0c-1.2,0-2.3,0.7-2.8,1.8c-4.3,10.3-6.4,21.8-5.8,33.8c2,40,34.5,72.2,74.5,73.9
		c45.8,1.9,83.4-35.8,81.3-81.6C343.6,223.8,311.1,191.3,271,189.6z"/>
</g>
<text transform="matrix(0.7365 -0.6764 0.6764 0.7365 97.2047 83.4871)" class="st8 st9 st10 st11">·</text>
<text transform="matrix(-0.7365 0.6764 -0.6764 -0.7365 437.8686 453.2997)" class="st8 st9 st10 st11">E</text>
<text transform="matrix(0.8865 -0.4628 0.4628 0.8865 150.9259 45.7406)" class="st8 st9 st10">L</text>
<text transform="matrix(0.976 -0.2175 0.2175 0.976 212.4519 23.075)" class="st8 st9 st10">A</text>
<text transform="matrix(0.9991 4.248000e-02 -4.248000e-02 0.9991 277.8729 17.1873)" class="st8 st9 st10">·</text>
<text transform="matrix(0.9541 0.2996 -0.2996 0.9541 342.5035 28.4067)" class="st8 st9 st10">R</text>
<text transform="matrix(0.844 0.5363 -0.5363 0.844 402.0056 55.9377)" class="st8 st9 st10">U</text>
<text transform="matrix(0.6764 0.7365 -0.7365 0.6764 452.444 98.0611)" class="st8 st9 st10 st11">L</text>
<text transform="matrix(0.4628 0.8865 -0.8865 0.4628 490.244 151.784)" class="st8 st9 st10">E</text>
<text transform="matrix(0.2175 0.976 -0.976 0.2175 512.8319 213.3082)" class="st8 st9 st10">T</text>
<text transform="matrix(-4.248000e-02 0.9991 -0.9991 -4.248000e-02 518.7502 278.7303)" class="st8 st9 st10">A</text>
<text transform="matrix(-0.2996 0.9541 -0.9541 -0.2996 507.5092 343.3603)" class="st8 st9 st10">·</text>
<text transform="matrix(-0.5363 0.844 -0.844 -0.5363 479.9302 402.8607)" class="st8 st9 st10">D</text>
<text transform="matrix(-0.8865 0.4628 -0.4628 -0.8865 384.1975 491.1014)" class="st8 st9 st10">·</text>
<text transform="matrix(-0.976 0.2175 -0.2175 -0.976 322.597 513.6851)" class="st8 st9 st10">L</text>
<text transform="matrix(-0.9991 -4.248000e-02 4.248000e-02 -0.9991 257.206 519.6056)" class="st8 st9 st10">A</text>
<text transform="matrix(-0.9541 -0.2996 0.2996 -0.9541 192.5546 508.3626)" class="st8 st9 st10">·</text>
<text transform="matrix(-0.844 -0.5363 0.5363 -0.844 133.0083 480.7819)" class="st8 st9 st10">S</text>
<text transform="matrix(-0.6764 -0.7365 0.7365 -0.6764 82.6314 438.725)" class="st8 st9 st10 st11">U</text>
<text transform="matrix(-0.4628 -0.8865 0.8865 -0.4628 44.8834 385.0571)" class="st8 st9 st10">E</text>
<text transform="matrix(-0.2175 -0.976 0.976 -0.2175 22.22 323.4522)" class="st8 st9 st10">R</text>
<text transform="matrix(4.248000e-02 -0.9991 0.9991 4.248000e-02 16.332 258.0628)" class="st8 st9 st10">T</text>
<text transform="matrix(0.2996 -0.9541 0.9541 0.2996 27.5524 193.4111)" class="st8 st9 st10">E</text>
<text transform="matrix(0.5363 -0.844 0.844 0.5363 55.0853 133.8617)" class="st8 st9 st10">·</text>
</svg>
